<svg width="450" height="561" viewBox="0 0 450 561" fill="none" xmlns="http://www.w3.org/2000/svg">
<path d="M124.709 90.2813C275.326 69.5332 342.693 -37.8138 416.541 56.5114C508.259 173.662 372.997 324.165 407.276 443.259C440.411 558.38 66.3423 595.197 138.606 467.347C213.797 334.317 -56.8758 115.295 124.709 90.2813Z" fill="#9466FF"/>
<mask id="mask0" mask-type="alpha" maskUnits="userSpaceOnUse" x="0" y="0" width="449" height="561">
<path d="M74.6802 31.9147C225.297 11.1666 342.692 -37.8139 416.54 56.5113C508.259 173.662 368.365 341.767 402.644 460.862C435.779 575.983 15.3873 604.461 87.6506 476.611C119.022 421.108 89.9653 405.327 48.7397 328.379C-8.84388 220.899 -31.1429 46.4923 74.6802 31.9147Z" fill="#9466FF"/>
</mask>
<g mask="url(#mask0)">
<path d="M232.302 435.336C125.581 435.629 14.8856 466.001 14.8856 540.175V552.893H449.719V540.175C449.719 466.001 339.024 435.629 232.302 435.336Z" fill="url(#paint0_radial)"/>
<path d="M194.191 410.988V498.674C194.191 520.679 209.67 538.543 228.746 538.543H235.649C254.726 538.543 270.205 520.721 270.205 498.674V410.988H194.191Z" fill="#7A4C32"/>
<path d="M184.736 460.772L200.842 552.809H265.226L279.618 460.772H184.736Z" fill="#81D4FA"/>
<path d="M270.163 436.382C294.929 438.181 306.643 440.314 306.643 440.314L319.738 470.854L297.774 489.22L309.614 515.032L286.27 552.642H257.529L270.163 436.382V436.382Z" fill="url(#paint1_linear)"/>
<path d="M194.148 436.382C169.382 438.181 157.794 440.314 157.794 440.314L144.699 470.854L166.663 489.22L154.823 515.032L178.167 552.642H206.908L194.148 436.382V436.382Z" fill="url(#paint2_linear)"/>
<path d="M102.237 470.519C108.805 467.089 116.461 462.069 120.017 458.973C128.049 451.987 147.084 433.998 161.266 446.674C176.578 460.103 160.848 481.271 154.782 490.056C151.769 494.449 149.469 499.302 147.586 504.238" stroke="#03A9F4" stroke-width="0.375" stroke-miterlimit="10"/>
<path d="M89.0588 499.887C87.0089 500.222 84.7917 501.1 82.6162 499.009C81.1939 497.628 79.3949 493.696 79.897 490.307C80.399 486.877 84.206 485.454 92.322 481.982C98.6391 479.304 104.454 476.585 109.725 473.029L101.86 463.24C101.86 463.24 92.7822 468.344 87.8456 470.268C79.1021 473.615 69.1454 477.422 67.5138 488.466C65.7567 500.347 72.283 508.798 77.3032 512.605C81.403 515.743 85.3355 517.249 89.1425 517.5C95.0413 517.876 98.9738 514.028 98.9738 508.087C98.9738 502.146 93.1587 499.176 89.0588 499.887V499.887Z" fill="url(#paint3_linear)"/>
<path d="M119.348 522.604C119.306 524.696 118.762 526.997 121.147 528.838C122.736 530.051 126.878 531.264 130.141 530.302C133.446 529.298 134.325 525.365 136.584 516.831C138.341 510.221 140.181 504.029 142.943 498.298L153.736 504.657C153.736 504.657 149.971 514.363 148.8 519.55C146.75 528.712 144.407 539.087 133.697 542.267C122.192 545.739 112.863 540.426 108.387 536.033C104.705 532.394 102.655 528.754 101.861 524.989C100.647 519.216 103.911 514.739 109.767 513.902C115.666 513.108 119.431 518.462 119.348 522.604V522.604Z" fill="url(#paint4_linear)"/>
<path d="M194.191 426.3C175.197 426.886 161.685 436.591 156.497 442.616L165.994 450.815C166.119 450.69 176.201 439.645 194.442 438.851L194.191 426.3Z" fill="#03A9F4"/>
<path d="M325.301 462.78C315.135 439.896 299.405 431.194 290.955 428.057C283.215 425.17 275.685 423.999 270.163 423.538V436.382C274.681 436.8 280.58 437.553 286.604 439.812C293.214 442.28 305.555 449.183 313.838 467.883C325.469 494.072 328.397 500.891 328.439 500.891L339.944 495.913C339.944 495.913 337.015 489.094 325.301 462.78V462.78Z" fill="#03A9F4"/>
<path d="M341.784 540.51C357.958 540.51 371.069 527.399 371.069 511.225C371.069 495.052 357.958 481.941 341.784 481.941C325.611 481.941 312.5 495.052 312.5 511.225C312.5 527.399 325.611 540.51 341.784 540.51Z" fill="url(#paint5_linear)"/>
<path d="M341.784 527.959C351.026 527.959 358.518 520.467 358.518 511.225C358.518 501.983 351.026 494.491 341.784 494.491C332.542 494.491 325.05 501.983 325.05 511.225C325.05 520.467 332.542 527.959 341.784 527.959Z" fill="#9E9E9E"/>
<path d="M346.512 243.815H117.841C93.2004 243.815 73.0359 265.318 73.0359 291.549C73.0359 317.78 93.2004 339.283 117.841 339.283H346.47C371.111 339.283 391.275 317.78 391.275 291.549C391.275 265.318 371.152 243.815 346.512 243.815V243.815Z" fill="#7A4C32"/>
<path d="M232.177 79.153C159.384 79.153 91.9455 157.008 91.9455 269.084C91.9455 380.533 161.433 435.629 232.177 435.629C302.92 435.629 372.408 380.491 372.408 269.042C372.408 157.008 304.969 79.153 232.177 79.153V79.153Z" fill="#A56C43"/>
<path d="M131.689 245.064C144.198 227.368 172.604 225.695 188.877 238.873C191.471 240.964 194.902 243.893 195.906 247.156C197.579 252.469 192.475 256.611 187.497 255.356C184.317 254.561 181.347 252.846 178.209 251.883C172.478 250.085 168.336 249.582 163.191 249.582C155.577 249.541 150.682 250.503 143.445 253.431C140.474 254.645 138.048 256.569 134.659 255.147C130.81 253.515 129.346 248.537 131.689 245.064V245.064Z" fill="#42312C"/>
<path d="M324.381 255.111C323.168 254.567 321.997 253.898 320.783 253.396C313.337 250.3 309.111 249.505 301.037 249.547C293.925 249.589 289.7 250.551 284.136 252.434C280.747 253.605 276.438 256.534 272.673 255.404C267.151 253.731 267.318 247.706 270.33 243.858C273.928 239.339 278.865 235.909 284.094 233.65C296.226 228.379 311.036 229.132 322.457 235.951C326.18 238.168 330.238 241.222 332.497 245.071C335.802 250.509 330.824 257.747 324.381 255.111V255.111Z" fill="#42312C"/>
<path d="M163.4 300.209C174.791 300.209 184.024 290.657 184.024 278.873C184.024 267.09 174.791 257.537 163.4 257.537C152.009 257.537 142.775 267.09 142.775 278.873C142.775 290.657 152.009 300.209 163.4 300.209Z" fill="#42312C"/>
<path d="M300.953 300.209C312.344 300.209 321.578 290.657 321.578 278.873C321.578 267.09 312.344 257.537 300.953 257.537C289.563 257.537 280.329 267.09 280.329 278.873C280.329 290.657 289.563 300.209 300.953 300.209Z" fill="#42312C"/>
<path d="M267.402 351.373C254.098 359.28 210.381 359.28 197.077 351.373C189.421 346.813 181.598 353.799 184.778 360.744C187.915 367.563 211.719 383.419 232.344 383.419C252.969 383.419 276.48 367.563 279.618 360.744C282.755 353.799 275.058 346.813 267.402 351.373Z" fill="#473530"/>
<path d="M248.325 317.57C247.864 317.403 247.446 317.278 246.986 317.236H217.367C216.907 317.278 216.446 317.403 216.028 317.57C213.351 318.658 211.886 321.419 213.141 324.39C214.396 327.36 220.295 335.643 232.176 335.643C244.057 335.643 249.956 327.318 251.211 324.39C252.466 321.419 251.002 318.658 248.325 317.57V317.57Z" fill="#875334"/>
<path d="M232.176 49.7009H232.008C41.9518 50.705 80.9002 267.829 80.9002 267.829C80.9002 267.829 89.4346 290.211 93.3252 300.084C93.8691 301.506 95.9608 301.339 96.2955 299.875C100.354 281.718 114.954 217.334 122.317 197.755C124.421 192.177 128.418 187.516 133.611 184.587C138.804 181.657 144.861 180.647 150.723 181.732C169.34 185.121 199.042 189.304 231.757 189.304H232.427C265.142 189.304 294.845 185.121 313.461 181.732C325.593 179.515 337.558 186.251 341.867 197.755C349.188 217.25 363.705 281.258 367.805 299.665C368.14 301.171 370.231 301.297 370.775 299.875L383.242 267.787C383.326 267.829 422.274 50.705 232.176 49.7009V49.7009Z" fill="#3C2C23"/>
<path d="M383.327 267.829C383.327 267.829 422.275 50.705 232.177 49.7009H232.009C229.039 49.7009 226.153 49.7846 223.308 49.9101C217.66 50.1611 212.18 50.5795 206.908 51.207H206.741C206.365 51.2488 206.03 51.3325 205.653 51.3743C45.6761 71.497 80.9012 267.829 80.9012 267.829L93.3681 299.958C93.9119 301.381 95.9618 301.255 96.2965 299.749C100.396 281.383 114.955 217.292 122.318 197.797C124.422 192.219 128.419 187.557 133.612 184.628C138.805 181.699 144.862 180.689 150.724 181.774C169.341 185.163 199.043 189.346 231.758 189.346H232.428C265.143 189.346 294.846 185.163 313.462 181.774C325.594 179.557 337.559 186.292 341.868 197.797C349.231 217.376 363.832 281.885 367.848 299.958C368.182 301.464 370.232 301.59 370.776 300.167C374.751 290.294 383.327 267.829 383.327 267.829V267.829Z" fill="url(#paint6_radial)"/>
</g>
<defs>
<radialGradient id="paint0_radial" cx="0" cy="0" r="1" gradientUnits="userSpaceOnUse" gradientTransform="translate(232.779 550.866) rotate(179.761) scale(313.827 169.787)">
<stop offset="0.559" stop-color="#F5F5F5"/>
<stop offset="1" stop-color="#C6C6C6"/>
</radialGradient>
<linearGradient id="paint1_linear" x1="288.667" y1="522.449" x2="288.667" y2="437.93" gradientUnits="userSpaceOnUse">
<stop offset="0.335" stop-color="#E0E0E0"/>
<stop offset="0.668" stop-color="#D0D0D0"/>
<stop offset="0.987" stop-color="#BDBDBD"/>
</linearGradient>
<linearGradient id="paint2_linear" x1="175.825" y1="522.449" x2="175.825" y2="437.93" gradientUnits="userSpaceOnUse">
<stop offset="0.335" stop-color="#E0E0E0"/>
<stop offset="0.668" stop-color="#D0D0D0"/>
<stop offset="0.987" stop-color="#BDBDBD"/>
</linearGradient>
<linearGradient id="paint3_linear" x1="106.701" y1="471.176" x2="67.3465" y2="516.492" gradientUnits="userSpaceOnUse">
<stop stop-color="#757575"/>
<stop offset="1"/>
</linearGradient>
<linearGradient id="paint4_linear" x1="143.541" y1="503.172" x2="104.187" y2="548.483" gradientUnits="userSpaceOnUse">
<stop stop-color="#757575"/>
<stop offset="1"/>
</linearGradient>
<linearGradient id="paint5_linear" x1="331.978" y1="490.5" x2="354.464" y2="538.088" gradientUnits="userSpaceOnUse">
<stop stop-color="#757575"/>
<stop offset="1"/>
</linearGradient>
<radialGradient id="paint6_radial" cx="0" cy="0" r="1" gradientUnits="userSpaceOnUse" gradientTransform="translate(232.106 229.874) scale(159.362 179.792)">
<stop offset="0.794" stop-color="#554138" stop-opacity="0"/>
<stop offset="1" stop-color="#554138"/>
</radialGradient>
</defs>
</svg>
