<svg width="166" height="166" viewBox="0 0 166 166" fill="none" xmlns="http://www.w3.org/2000/svg">
<path d="M51.9234 158C51.9234 158 38.8891 153.278 38.3203 153.088C37.7547 152.9 27.9297 150.822 27.9297 150.822L24.9078 146.478L32.8422 132.122L43.9891 121.544L68.3578 104.919L73.2703 92.0719L78.9391 86.5938L79.6953 80.7375L84.7953 75.2594L89.8953 84.3281L96.1297 80.55L100.098 83.3844L98.3984 88.675L99.9109 91.6969L91.7891 106.244L86.4984 109.644L86.1203 113.422L90.4641 116.822L87.8203 120.413L76.6734 122.869L71.1953 127.403L69.4953 136.659L62.5047 149.506L51.9234 158Z" fill="#E1E1E6"/>
<path d="M110.302 89.6125L103.498 85.4562L109.167 76.7656L106.711 67.3187L95.5641 62.5969L95.3766 58.8187L103.311 54.2844L105.198 45.0281L101.042 28.5906L88.9516 10.6437L96.3203 8L103.536 22.4844L113.133 30.2937L116.723 39.9281L128.436 45.0281L136.183 39.55L141.092 41.0594L139.014 51.45L135.427 59.575L127.302 59.7625L126.923 65.2406L120.314 79.2219L116.533 85.8344L110.302 89.6125Z" fill="#E1E1E6"/>
</svg>
