<svg width="599" height="166" viewBox="0 0 599 166" fill="none" xmlns="http://www.w3.org/2000/svg">
<path d="M70.0092 130C70.0092 130 62.0439 127.114 61.6963 126.998C61.3507 126.883 55.3467 125.613 55.3467 125.613L53.5 122.959L58.3487 114.186L65.1605 107.722L80.0522 97.5622L83.0542 89.7115L86.5184 86.3638L86.9805 82.785L90.0971 79.4374L93.2137 84.9793L97.0235 82.6705L99.4488 84.4025L98.4099 87.6356L99.3342 89.4823L94.371 98.3719L91.1379 100.45L90.9068 102.758L93.5613 104.836L91.9457 107.03L85.1339 108.531L81.7862 111.302L80.7473 116.959L76.4754 124.809L70.0092 130Z" fill="#E1E1E6"/>
<path d="M105.684 88.2085L101.527 85.6687L104.991 80.3578L103.49 74.5849L96.6779 71.6994L96.5633 69.3905L101.412 66.6196L102.565 60.9631L100.026 50.9182L92.637 39.9509L97.14 38.3353L101.549 47.1867L107.414 51.959L109.608 57.8465L116.766 60.9631L121.5 57.6155L124.5 58.5378L123.23 64.8875L121.038 69.8527L116.073 69.9673L115.842 73.3149L111.803 81.8589L109.492 85.8997L105.684 88.2085Z" fill="#E1E1E6"/>
<path d="M172.08 83.4143C167.184 83.4143 163.359 82.2243 160.605 79.8443C157.851 77.4303 156.389 74.0133 156.219 69.5933C156.185 68.6073 156.168 67.0433 156.168 64.9013C156.168 62.7593 156.185 61.1953 156.219 60.2093C156.389 55.8913 157.868 52.5593 160.656 50.2133C163.478 47.8673 167.286 46.6943 172.08 46.6943C175.31 46.6943 178.115 47.2213 180.495 48.2753C182.909 49.3293 184.745 50.6723 186.003 52.3043C187.295 53.9363 187.975 55.6193 188.043 57.3533C188.043 57.6593 187.924 57.9143 187.686 58.1183C187.482 58.3223 187.227 58.4243 186.921 58.4243H179.475C179.135 58.4243 178.863 58.3733 178.659 58.2713C178.455 58.1693 178.285 57.9823 178.149 57.7103C177.707 56.7243 177.01 55.8743 176.058 55.1603C175.106 54.4123 173.78 54.0383 172.08 54.0383C168.034 54.0383 165.909 56.1803 165.705 60.4643C165.671 61.4163 165.654 62.8953 165.654 64.9013C165.654 66.8733 165.671 68.3523 165.705 69.3383C165.909 73.8263 168.085 76.0703 172.233 76.0703C174.239 76.0703 175.837 75.5603 177.027 74.5403C178.251 73.4863 178.863 71.8883 178.863 69.7463V68.7773H174.069C173.695 68.7773 173.389 68.6583 173.151 68.4203C172.913 68.1483 172.794 67.8253 172.794 67.4513V63.6773C172.794 63.3033 172.913 62.9973 173.151 62.7593C173.389 62.4873 173.695 62.3513 174.069 62.3513H186.921C187.295 62.3513 187.601 62.4873 187.839 62.7593C188.077 62.9973 188.196 63.3033 188.196 63.6773V69.4913C188.196 72.3813 187.533 74.8803 186.207 76.9883C184.881 79.0623 182.994 80.6603 180.546 81.7823C178.132 82.8703 175.31 83.4143 172.08 83.4143ZM191.21 82.9043C190.938 82.9043 190.683 82.8023 190.445 82.5983C190.241 82.3603 190.139 82.1053 190.139 81.8333C190.139 81.6293 190.156 81.4763 190.19 81.3743L202.175 48.6323C202.277 48.2243 202.498 47.8843 202.838 47.6123C203.178 47.3403 203.62 47.2043 204.164 47.2043H211.712C212.256 47.2043 212.698 47.3403 213.038 47.6123C213.378 47.8843 213.599 48.2243 213.701 48.6323L225.635 81.3743L225.737 81.8333C225.737 82.1053 225.618 82.3603 225.38 82.5983C225.176 82.8023 224.921 82.9043 224.615 82.9043H218.342C217.526 82.9043 216.982 82.5473 216.71 81.8333L214.721 76.6313H201.104L199.166 81.8333C198.894 82.5473 198.333 82.9043 197.483 82.9043H191.21ZM212.681 69.2873L207.938 55.8233L203.195 69.2873H212.681ZM231.032 82.9043C230.692 82.9043 230.386 82.7853 230.114 82.5473C229.876 82.2753 229.757 81.9693 229.757 81.6293V48.4793C229.757 48.1053 229.876 47.7993 230.114 47.5613C230.386 47.3233 230.692 47.2043 231.032 47.2043H236.54C237.356 47.2043 237.951 47.5783 238.325 48.3263L247.301 64.3913L256.277 48.3263C256.651 47.5783 257.246 47.2043 258.062 47.2043H263.519C263.893 47.2043 264.199 47.3233 264.437 47.5613C264.709 47.7993 264.845 48.1053 264.845 48.4793V81.6293C264.845 82.0033 264.709 82.3093 264.437 82.5473C264.199 82.7853 263.893 82.9043 263.519 82.9043H257.45C257.076 82.9043 256.753 82.7853 256.481 82.5473C256.243 82.3093 256.124 82.0033 256.124 81.6293V62.5043L250.412 73.1633C249.97 73.9453 249.375 74.3363 248.627 74.3363H245.975C245.533 74.3363 245.176 74.2343 244.904 74.0303C244.632 73.8263 244.394 73.5373 244.19 73.1633L238.427 62.5043V81.6293C238.427 81.9693 238.308 82.2753 238.07 82.5473C237.832 82.7853 237.526 82.9043 237.152 82.9043H231.032ZM269.951 82.9043C269.679 82.9043 269.424 82.8023 269.186 82.5983C268.982 82.3603 268.88 82.1053 268.88 81.8333C268.88 81.6293 268.897 81.4763 268.931 81.3743L280.916 48.6323C281.018 48.2243 281.239 47.8843 281.579 47.6123C281.919 47.3403 282.361 47.2043 282.905 47.2043H290.453C290.997 47.2043 291.439 47.3403 291.779 47.6123C292.119 47.8843 292.34 48.2243 292.442 48.6323L304.376 81.3743L304.478 81.8333C304.478 82.1053 304.359 82.3603 304.121 82.5983C303.917 82.8023 303.662 82.9043 303.356 82.9043H297.083C296.267 82.9043 295.723 82.5473 295.451 81.8333L293.462 76.6313H279.845L277.907 81.8333C277.635 82.5473 277.074 82.9043 276.224 82.9043H269.951ZM291.422 69.2873L286.679 55.8233L281.936 69.2873H291.422ZM319.335 82.9043C318.995 82.9043 318.689 82.7853 318.417 82.5473C318.179 82.2753 318.06 81.9693 318.06 81.6293V48.4793C318.06 48.1053 318.179 47.7993 318.417 47.5613C318.689 47.3233 318.995 47.2043 319.335 47.2043H333.615C337.967 47.2043 341.384 48.2073 343.866 50.2133C346.382 52.2193 347.64 55.1433 347.64 58.9853C347.64 62.7933 346.399 65.6663 343.917 67.6043C341.435 69.5083 338.001 70.4603 333.615 70.4603H327.546V81.6293C327.546 82.0033 327.41 82.3093 327.138 82.5473C326.9 82.7853 326.594 82.9043 326.22 82.9043H319.335ZM333.36 63.4223C334.856 63.4223 336.029 63.0483 336.879 62.3003C337.729 61.5183 338.154 60.3793 338.154 58.8833C338.154 57.4893 337.746 56.3843 336.93 55.5683C336.148 54.7183 334.958 54.2933 333.36 54.2933H327.393V63.4223H333.36ZM367.519 83.4143C362.725 83.4143 358.968 82.2413 356.248 79.8953C353.562 77.5493 352.219 74.0133 352.219 69.2873V48.4793C352.219 48.1053 352.338 47.7993 352.576 47.5613C352.848 47.3233 353.154 47.2043 353.494 47.2043H360.073C360.447 47.2043 360.753 47.3233 360.991 47.5613C361.263 47.7993 361.399 48.1053 361.399 48.4793V69.2363C361.399 71.4463 361.909 73.1123 362.929 74.2343C363.983 75.3223 365.496 75.8663 367.468 75.8663C369.406 75.8663 370.902 75.3053 371.956 74.1833C373.01 73.0613 373.537 71.4123 373.537 69.2363V48.4793C373.537 48.1053 373.656 47.7993 373.894 47.5613C374.166 47.3233 374.472 47.2043 374.812 47.2043H381.442C381.816 47.2043 382.122 47.3233 382.36 47.5613C382.598 47.7993 382.717 48.1053 382.717 48.4793V69.2873C382.717 74.0133 381.357 77.5493 378.637 79.8953C375.951 82.2413 372.245 83.4143 367.519 83.4143ZM359.512 44.6543C359.172 44.6543 358.9 44.5523 358.696 44.3483C358.492 44.1103 358.39 43.8213 358.39 43.4813V39.7583C358.39 39.4183 358.492 39.1463 358.696 38.9423C358.9 38.7043 359.172 38.5853 359.512 38.5853H375.322C375.662 38.5853 375.934 38.7043 376.138 38.9423C376.376 39.1463 376.495 39.4183 376.495 39.7583V43.4813C376.495 43.8213 376.376 44.1103 376.138 44.3483C375.934 44.5523 375.662 44.6543 375.322 44.6543H359.512ZM390.755 82.9043C390.415 82.9043 390.109 82.7853 389.837 82.5473C389.599 82.2753 389.48 81.9693 389.48 81.6293V48.4793C389.48 48.1053 389.599 47.7993 389.837 47.5613C390.109 47.3233 390.415 47.2043 390.755 47.2043H404.627C409.081 47.2043 412.549 48.2243 415.031 50.2643C417.547 52.2703 418.805 55.1263 418.805 58.8323C418.805 61.2123 418.244 63.2353 417.122 64.9013C416 66.5673 414.453 67.8423 412.481 68.7263L419.468 81.2723C419.57 81.4763 419.621 81.6633 419.621 81.8333C419.621 82.1053 419.502 82.3603 419.264 82.5983C419.06 82.8023 418.822 82.9043 418.55 82.9043H411.767C410.781 82.9043 410.084 82.4453 409.676 81.5273L403.862 70.3073H398.66V81.6293C398.66 82.0033 398.524 82.3093 398.252 82.5473C398.014 82.7853 397.708 82.9043 397.334 82.9043H390.755ZM404.525 63.0653C406.089 63.0653 407.279 62.6913 408.095 61.9433C408.911 61.1613 409.319 60.0903 409.319 58.7303C409.319 57.3703 408.911 56.2993 408.095 55.5173C407.313 54.7013 406.123 54.2933 404.525 54.2933H398.66V63.0653H404.525ZM439.178 83.4143C434.384 83.4143 430.61 82.2413 427.856 79.8953C425.102 77.5493 423.64 74.0983 423.47 69.5423C423.436 68.5563 423.419 67.0943 423.419 65.1563C423.419 63.1843 423.436 61.7053 423.47 60.7193C423.64 56.2313 425.119 52.7803 427.907 50.3663C430.729 47.9183 434.486 46.6943 439.178 46.6943C443.87 46.6943 447.627 47.9183 450.449 50.3663C453.271 52.7803 454.75 56.2313 454.886 60.7193C454.954 62.6913 454.988 64.1703 454.988 65.1563C454.988 66.1083 454.954 67.5703 454.886 69.5423C454.716 74.0983 453.254 77.5493 450.5 79.8953C447.746 82.2413 443.972 83.4143 439.178 83.4143ZM439.178 76.0703C441.048 76.0703 442.527 75.5093 443.615 74.3873C444.737 73.2653 445.332 71.5483 445.4 69.2363C445.468 67.2643 445.502 65.8703 445.502 65.0543C445.502 64.1703 445.468 62.7763 445.4 60.8723C445.332 58.5603 444.737 56.8433 443.615 55.7213C442.493 54.5993 441.014 54.0383 439.178 54.0383C437.342 54.0383 435.863 54.5993 434.741 55.7213C433.653 56.8433 433.058 58.5603 432.956 60.8723C432.922 61.8243 432.905 63.2183 432.905 65.0543C432.905 66.8563 432.922 68.2503 432.956 69.2363C433.058 71.5483 433.653 73.2653 434.741 74.3873C435.829 75.5093 437.308 76.0703 439.178 76.0703ZM462.175 82.9043C461.835 82.9043 461.529 82.7853 461.257 82.5473C461.019 82.2753 460.9 81.9693 460.9 81.6293V48.4793C460.9 48.1053 461.019 47.7993 461.257 47.5613C461.529 47.3233 461.835 47.2043 462.175 47.2043H467.581C468.431 47.2043 469.009 47.5273 469.315 48.1733L481.759 67.7573V48.4793C481.759 48.1053 481.878 47.7993 482.116 47.5613C482.388 47.3233 482.694 47.2043 483.034 47.2043H489.154C489.528 47.2043 489.834 47.3233 490.072 47.5613C490.31 47.7993 490.429 48.1053 490.429 48.4793V81.5783C490.429 81.9523 490.31 82.2753 490.072 82.5473C489.834 82.7853 489.528 82.9043 489.154 82.9043H483.697C482.949 82.9043 482.388 82.5813 482.014 81.9353L469.57 63.0653V81.6293C469.57 81.9693 469.451 82.2753 469.213 82.5473C468.975 82.7853 468.669 82.9043 468.295 82.9043H462.175ZM512.295 83.4143C507.399 83.4143 503.574 82.2243 500.82 79.8443C498.066 77.4303 496.604 74.0133 496.434 69.5933C496.4 68.6073 496.383 67.0433 496.383 64.9013C496.383 62.7593 496.4 61.1953 496.434 60.2093C496.604 55.8913 498.083 52.5593 500.871 50.2133C503.693 47.8673 507.501 46.6943 512.295 46.6943C515.525 46.6943 518.33 47.2213 520.71 48.2753C523.124 49.3293 524.96 50.6723 526.218 52.3043C527.51 53.9363 528.19 55.6193 528.258 57.3533C528.258 57.6593 528.139 57.9143 527.901 58.1183C527.697 58.3223 527.442 58.4243 527.136 58.4243H519.69C519.35 58.4243 519.078 58.3733 518.874 58.2713C518.67 58.1693 518.5 57.9823 518.364 57.7103C517.922 56.7243 517.225 55.8743 516.273 55.1603C515.321 54.4123 513.995 54.0383 512.295 54.0383C508.249 54.0383 506.124 56.1803 505.92 60.4643C505.886 61.4163 505.869 62.8953 505.869 64.9013C505.869 66.8733 505.886 68.3523 505.92 69.3383C506.124 73.8263 508.3 76.0703 512.448 76.0703C514.454 76.0703 516.052 75.5603 517.242 74.5403C518.466 73.4863 519.078 71.8883 519.078 69.7463V68.7773H514.284C513.91 68.7773 513.604 68.6583 513.366 68.4203C513.128 68.1483 513.009 67.8253 513.009 67.4513V63.6773C513.009 63.3033 513.128 62.9973 513.366 62.7593C513.604 62.4873 513.91 62.3513 514.284 62.3513H527.136C527.51 62.3513 527.816 62.4873 528.054 62.7593C528.292 62.9973 528.411 63.3033 528.411 63.6773V69.4913C528.411 72.3813 527.748 74.8803 526.422 76.9883C525.096 79.0623 523.209 80.6603 520.761 81.7823C518.347 82.8703 515.525 83.4143 512.295 83.4143ZM548.848 83.4143C544.054 83.4143 540.28 82.2413 537.526 79.8953C534.772 77.5493 533.31 74.0983 533.14 69.5423C533.106 68.5563 533.089 67.0943 533.089 65.1563C533.089 63.1843 533.106 61.7053 533.14 60.7193C533.31 56.2313 534.789 52.7803 537.577 50.3663C540.399 47.9183 544.156 46.6943 548.848 46.6943C553.54 46.6943 557.297 47.9183 560.119 50.3663C562.941 52.7803 564.42 56.2313 564.556 60.7193C564.624 62.6913 564.658 64.1703 564.658 65.1563C564.658 66.1083 564.624 67.5703 564.556 69.5423C564.386 74.0983 562.924 77.5493 560.17 79.8953C557.416 82.2413 553.642 83.4143 548.848 83.4143ZM548.848 76.0703C550.718 76.0703 552.197 75.5093 553.285 74.3873C554.407 73.2653 555.002 71.5483 555.07 69.2363C555.138 67.2643 555.172 65.8703 555.172 65.0543C555.172 64.1703 555.138 62.7763 555.07 60.8723C555.002 58.5603 554.407 56.8433 553.285 55.7213C552.163 54.5993 550.684 54.0383 548.848 54.0383C547.012 54.0383 545.533 54.5993 544.411 55.7213C543.323 56.8433 542.728 58.5603 542.626 60.8723C542.592 61.8243 542.575 63.2183 542.575 65.0543C542.575 66.8563 542.592 68.2503 542.626 69.2363C542.728 71.5483 543.323 73.2653 544.411 74.3873C545.499 75.5093 546.978 76.0703 548.848 76.0703Z" fill="#E1E1E6"/>
<path d="M152.227 129.683C152.007 129.683 151.8 129.6 151.608 129.435C151.443 129.243 151.36 129.036 151.36 128.816C151.36 128.651 151.374 128.527 151.401 128.444L161.103 101.94C161.185 101.61 161.364 101.335 161.64 101.115C161.915 100.895 162.273 100.784 162.713 100.784H168.823C169.263 100.784 169.621 100.895 169.896 101.115C170.171 101.335 170.35 101.61 170.433 101.94L180.093 128.444L180.176 128.816C180.176 129.036 180.079 129.243 179.887 129.435C179.722 129.6 179.515 129.683 179.268 129.683H174.19C173.529 129.683 173.089 129.394 172.869 128.816L171.259 124.605H160.236L158.667 128.816C158.447 129.394 157.993 129.683 157.305 129.683H152.227ZM169.607 118.66L165.768 107.761L161.929 118.66H169.607Z" fill="#E1E1E6"/>
<path d="M221.673 130.096C217.792 130.096 214.737 129.146 212.508 127.247C210.279 125.348 209.095 122.555 208.957 118.867C208.93 118.068 208.916 116.885 208.916 115.316C208.916 113.72 208.93 112.523 208.957 111.725C209.095 108.092 210.292 105.298 212.549 103.344C214.833 101.362 217.875 100.372 221.673 100.372C225.471 100.372 228.512 101.362 230.796 103.344C233.081 105.298 234.278 108.092 234.388 111.725C234.443 113.321 234.471 114.518 234.471 115.316C234.471 116.087 234.443 117.27 234.388 118.867C234.25 122.555 233.067 125.348 230.838 127.247C228.608 129.146 225.553 130.096 221.673 130.096ZM221.673 124.151C223.186 124.151 224.384 123.697 225.264 122.789C226.173 121.88 226.654 120.49 226.709 118.619C226.764 117.023 226.792 115.894 226.792 115.234C226.792 114.518 226.764 113.39 226.709 111.848C226.654 109.977 226.173 108.587 225.264 107.679C224.356 106.771 223.159 106.316 221.673 106.316C220.187 106.316 218.989 106.771 218.081 107.679C217.2 108.587 216.719 109.977 216.636 111.848C216.609 112.619 216.595 113.747 216.595 115.234C216.595 116.692 216.609 117.821 216.636 118.619C216.719 120.49 217.2 121.88 218.081 122.789C218.962 123.697 220.159 124.151 221.673 124.151Z" fill="#E1E1E6"/>
<path d="M273.243 129.683C272.968 129.683 272.72 129.587 272.5 129.394C272.307 129.174 272.211 128.926 272.211 128.651V107.266H264.862C264.587 107.266 264.339 107.17 264.119 106.977C263.927 106.757 263.83 106.509 263.83 106.234V101.817C263.83 101.514 263.927 101.266 264.119 101.073C264.339 100.881 264.587 100.784 264.862 100.784H287.073C287.376 100.784 287.623 100.881 287.816 101.073C288.009 101.266 288.105 101.514 288.105 101.817V106.234C288.105 106.537 288.009 106.784 287.816 106.977C287.623 107.17 287.376 107.266 287.073 107.266H279.724V128.651C279.724 128.926 279.628 129.174 279.435 129.394C279.243 129.587 278.995 129.683 278.692 129.683H273.243Z" fill="#E1E1E6"/>
<path d="M319.93 129.683C319.654 129.683 319.407 129.587 319.186 129.394C318.994 129.174 318.897 128.926 318.897 128.651V101.817C318.897 101.514 318.994 101.266 319.186 101.073C319.407 100.881 319.654 100.784 319.93 100.784H339.209C339.512 100.784 339.759 100.881 339.952 101.073C340.145 101.266 340.241 101.514 340.241 101.817V105.697C340.241 105.972 340.145 106.22 339.952 106.44C339.759 106.633 339.512 106.729 339.209 106.729H326.039V112.303H338.301C338.603 112.303 338.851 112.413 339.044 112.633C339.236 112.825 339.333 113.073 339.333 113.376V116.968C339.333 117.243 339.236 117.491 339.044 117.711C338.851 117.903 338.603 118 338.301 118H326.039V123.738H339.539C339.842 123.738 340.09 123.834 340.282 124.027C340.475 124.22 340.571 124.467 340.571 124.77V128.651C340.571 128.926 340.475 129.174 340.282 129.394C340.09 129.587 339.842 129.683 339.539 129.683H319.93Z" fill="#E1E1E6"/>
<path d="M373.337 129.683C373.062 129.683 372.814 129.587 372.594 129.394C372.401 129.174 372.305 128.926 372.305 128.651V101.817C372.305 101.514 372.401 101.266 372.594 101.073C372.814 100.881 373.062 100.784 373.337 100.784H384.566C388.171 100.784 390.979 101.61 392.988 103.261C395.024 104.885 396.043 107.197 396.043 110.197C396.043 112.124 395.588 113.761 394.68 115.11C393.772 116.458 392.52 117.491 390.923 118.206L396.579 128.362C396.662 128.527 396.703 128.678 396.703 128.816C396.703 129.036 396.607 129.243 396.414 129.435C396.249 129.6 396.056 129.683 395.836 129.683H390.346C389.547 129.683 388.983 129.311 388.653 128.568L383.947 119.486H379.736V128.651C379.736 128.954 379.626 129.201 379.405 129.394C379.213 129.587 378.965 129.683 378.662 129.683H373.337ZM384.483 113.624C385.749 113.624 386.713 113.321 387.373 112.715C388.034 112.082 388.364 111.215 388.364 110.115C388.364 109.014 388.034 108.147 387.373 107.514C386.74 106.853 385.777 106.523 384.483 106.523H379.736V113.624H384.483Z" fill="#E1E1E6"/>
<path d="M426.238 129.683C426.017 129.683 425.811 129.6 425.618 129.435C425.453 129.243 425.371 129.036 425.371 128.816C425.371 128.651 425.384 128.527 425.412 128.444L435.114 101.94C435.196 101.61 435.375 101.335 435.65 101.115C435.925 100.895 436.283 100.784 436.724 100.784H442.834C443.274 100.784 443.632 100.895 443.907 101.115C444.182 101.335 444.361 101.61 444.444 101.94L454.104 128.444L454.186 128.816C454.186 129.036 454.09 129.243 453.897 129.435C453.732 129.6 453.526 129.683 453.278 129.683H448.2C447.54 129.683 447.099 129.394 446.879 128.816L445.269 124.605H434.247L432.678 128.816C432.458 129.394 432.003 129.683 431.315 129.683H426.238ZM443.618 118.66L439.779 107.761L435.939 118.66H443.618Z" fill="#E1E1E6"/>
<path d="M495.683 130.096C491.803 130.096 488.748 129.146 486.518 127.247C484.289 125.348 483.106 122.555 482.968 118.867C482.941 118.068 482.927 116.885 482.927 115.316C482.927 113.72 482.941 112.523 482.968 111.725C483.106 108.092 484.303 105.298 486.56 103.344C488.844 101.362 491.885 100.372 495.683 100.372C499.481 100.372 502.523 101.362 504.807 103.344C507.091 105.298 508.289 108.092 508.399 111.725C508.454 113.321 508.481 114.518 508.481 115.316C508.481 116.087 508.454 117.27 508.399 118.867C508.261 122.555 507.078 125.348 504.848 127.247C502.619 129.146 499.564 130.096 495.683 130.096ZM495.683 124.151C497.197 124.151 498.394 123.697 499.275 122.789C500.183 121.88 500.665 120.49 500.72 118.619C500.775 117.023 500.803 115.894 500.803 115.234C500.803 114.518 500.775 113.39 500.72 111.848C500.665 109.977 500.183 108.587 499.275 107.679C498.367 106.771 497.17 106.316 495.683 106.316C494.197 106.316 493 106.771 492.092 107.679C491.211 108.587 490.729 109.977 490.647 111.848C490.619 112.619 490.606 113.747 490.606 115.234C490.606 116.692 490.619 117.821 490.647 118.619C490.729 120.49 491.211 121.88 492.092 122.789C492.972 123.697 494.17 124.151 495.683 124.151Z" fill="#E1E1E6"/>
<path d="M538.051 129.683C537.831 129.683 537.625 129.6 537.432 129.435C537.267 129.243 537.184 129.036 537.184 128.816C537.184 128.651 537.198 128.527 537.225 128.444L546.927 101.94C547.01 101.61 547.189 101.335 547.464 101.115C547.739 100.895 548.097 100.784 548.537 100.784H554.647C555.087 100.784 555.445 100.895 555.72 101.115C555.996 101.335 556.175 101.61 556.257 101.94L565.917 128.444L566 128.816C566 129.036 565.904 129.243 565.711 129.435C565.546 129.6 565.339 129.683 565.092 129.683H560.014C559.353 129.683 558.913 129.394 558.693 128.816L557.083 124.605H546.06L544.491 128.816C544.271 129.394 543.817 129.683 543.129 129.683H538.051ZM555.431 118.66L551.592 107.761L547.753 118.66H555.431Z" fill="#E1E1E6"/>
</svg>
