<svg width="599" height="166" viewBox="0 0 599 166" fill="none" xmlns="http://www.w3.org/2000/svg">
<g clip-path="url(#clip0)">
<path d="M70.0092 130C70.0092 130 62.0439 127.114 61.6963 126.998C61.3507 126.883 55.3467 125.613 55.3467 125.613L53.5 122.959L58.3487 114.186L65.1605 107.722L80.0522 97.5622L83.0542 89.7115L86.5184 86.3638L86.9805 82.785L90.0971 79.4374L93.2137 84.9793L97.0235 82.6705L99.4488 84.4025L98.4099 87.6356L99.3342 89.4823L94.371 98.3719L91.1379 100.45L90.9068 102.758L93.5613 104.836L91.9457 107.03L85.1339 108.531L81.7862 111.302L80.7473 116.959L76.4754 124.809L70.0092 130Z" fill="#E1E1E6"/>
<path d="M105.684 88.2085L101.527 85.6687L104.991 80.3578L103.49 74.5849L96.6779 71.6994L96.5633 69.3905L101.412 66.6196L102.565 60.9631L100.026 50.9182L92.637 39.9509L97.14 38.3353L101.549 47.1867L107.414 51.959L109.608 57.8465L116.766 60.9631L121.5 57.6155L124.5 58.5378L123.23 64.8875L121.038 69.8527L116.073 69.9673L115.842 73.3149L111.803 81.8588L109.492 85.8997L105.684 88.2085Z" fill="#E1E1E6"/>
<path d="M172.08 80.51C167.184 80.51 163.359 79.32 160.605 76.94C157.851 74.526 156.389 71.109 156.219 66.689C156.185 65.703 156.168 64.139 156.168 61.997C156.168 59.855 156.185 58.291 156.219 57.305C156.389 52.987 157.868 49.655 160.656 47.309C163.478 44.963 167.286 43.79 172.08 43.79C175.31 43.79 178.115 44.317 180.495 45.371C182.909 46.425 184.745 47.768 186.003 49.4C187.295 51.032 187.975 52.715 188.043 54.449C188.043 54.755 187.924 55.01 187.686 55.214C187.482 55.418 187.227 55.52 186.921 55.52H179.475C179.135 55.52 178.863 55.469 178.659 55.367C178.455 55.265 178.285 55.078 178.149 54.806C177.707 53.82 177.01 52.97 176.058 52.256C175.106 51.508 173.78 51.134 172.08 51.134C168.034 51.134 165.909 53.276 165.705 57.56C165.671 58.512 165.654 59.991 165.654 61.997C165.654 63.969 165.671 65.448 165.705 66.434C165.909 70.922 168.085 73.166 172.233 73.166C174.239 73.166 175.837 72.656 177.027 71.636C178.251 70.582 178.863 68.984 178.863 66.842V65.873H174.069C173.695 65.873 173.389 65.754 173.151 65.516C172.913 65.244 172.794 64.921 172.794 64.547V60.773C172.794 60.399 172.913 60.093 173.151 59.855C173.389 59.583 173.695 59.447 174.069 59.447H186.921C187.295 59.447 187.601 59.583 187.839 59.855C188.077 60.093 188.196 60.399 188.196 60.773V66.587C188.196 69.477 187.533 71.976 186.207 74.084C184.881 76.158 182.994 77.756 180.546 78.878C178.132 79.966 175.31 80.51 172.08 80.51ZM191.21 80C190.938 80 190.683 79.898 190.445 79.694C190.241 79.456 190.139 79.201 190.139 78.929C190.139 78.725 190.156 78.572 190.19 78.47L202.175 45.728C202.277 45.32 202.498 44.98 202.838 44.708C203.178 44.436 203.62 44.3 204.164 44.3H211.712C212.256 44.3 212.698 44.436 213.038 44.708C213.378 44.98 213.599 45.32 213.701 45.728L225.635 78.47L225.737 78.929C225.737 79.201 225.618 79.456 225.38 79.694C225.176 79.898 224.921 80 224.615 80H218.342C217.526 80 216.982 79.643 216.71 78.929L214.721 73.727H201.104L199.166 78.929C198.894 79.643 198.333 80 197.483 80H191.21ZM212.681 66.383L207.938 52.919L203.195 66.383H212.681ZM231.032 80C230.692 80 230.386 79.881 230.114 79.643C229.876 79.371 229.757 79.065 229.757 78.725V45.575C229.757 45.201 229.876 44.895 230.114 44.657C230.386 44.419 230.692 44.3 231.032 44.3H236.54C237.356 44.3 237.951 44.674 238.325 45.422L247.301 61.487L256.277 45.422C256.651 44.674 257.246 44.3 258.062 44.3H263.519C263.893 44.3 264.199 44.419 264.437 44.657C264.709 44.895 264.845 45.201 264.845 45.575V78.725C264.845 79.099 264.709 79.405 264.437 79.643C264.199 79.881 263.893 80 263.519 80H257.45C257.076 80 256.753 79.881 256.481 79.643C256.243 79.405 256.124 79.099 256.124 78.725V59.6L250.412 70.259C249.97 71.041 249.375 71.432 248.627 71.432H245.975C245.533 71.432 245.176 71.33 244.904 71.126C244.632 70.922 244.394 70.633 244.19 70.259L238.427 59.6V78.725C238.427 79.065 238.308 79.371 238.07 79.643C237.832 79.881 237.526 80 237.152 80H231.032ZM269.951 80C269.679 80 269.424 79.898 269.186 79.694C268.982 79.456 268.88 79.201 268.88 78.929C268.88 78.725 268.897 78.572 268.931 78.47L280.916 45.728C281.018 45.32 281.239 44.98 281.579 44.708C281.919 44.436 282.361 44.3 282.905 44.3H290.453C290.997 44.3 291.439 44.436 291.779 44.708C292.119 44.98 292.34 45.32 292.442 45.728L304.376 78.47L304.478 78.929C304.478 79.201 304.359 79.456 304.121 79.694C303.917 79.898 303.662 80 303.356 80H297.083C296.267 80 295.723 79.643 295.451 78.929L293.462 73.727H279.845L277.907 78.929C277.635 79.643 277.074 80 276.224 80H269.951ZM291.422 66.383L286.679 52.919L281.936 66.383H291.422ZM319.335 80C318.995 80 318.689 79.881 318.417 79.643C318.179 79.371 318.06 79.065 318.06 78.725V45.575C318.06 45.201 318.179 44.895 318.417 44.657C318.689 44.419 318.995 44.3 319.335 44.3H333.615C337.967 44.3 341.384 45.303 343.866 47.309C346.382 49.315 347.64 52.239 347.64 56.081C347.64 59.889 346.399 62.762 343.917 64.7C341.435 66.604 338.001 67.556 333.615 67.556H327.546V78.725C327.546 79.099 327.41 79.405 327.138 79.643C326.9 79.881 326.594 80 326.22 80H319.335ZM333.36 60.518C334.856 60.518 336.029 60.144 336.879 59.396C337.729 58.614 338.154 57.475 338.154 55.979C338.154 54.585 337.746 53.48 336.93 52.664C336.148 51.814 334.958 51.389 333.36 51.389H327.393V60.518H333.36ZM367.519 80.51C362.725 80.51 358.968 79.337 356.248 76.991C353.562 74.645 352.219 71.109 352.219 66.383V45.575C352.219 45.201 352.338 44.895 352.576 44.657C352.848 44.419 353.154 44.3 353.494 44.3H360.073C360.447 44.3 360.753 44.419 360.991 44.657C361.263 44.895 361.399 45.201 361.399 45.575V66.332C361.399 68.542 361.909 70.208 362.929 71.33C363.983 72.418 365.496 72.962 367.468 72.962C369.406 72.962 370.902 72.401 371.956 71.279C373.01 70.157 373.537 68.508 373.537 66.332V45.575C373.537 45.201 373.656 44.895 373.894 44.657C374.166 44.419 374.472 44.3 374.812 44.3H381.442C381.816 44.3 382.122 44.419 382.36 44.657C382.598 44.895 382.717 45.201 382.717 45.575V66.383C382.717 71.109 381.357 74.645 378.637 76.991C375.951 79.337 372.245 80.51 367.519 80.51ZM359.512 41.75C359.172 41.75 358.9 41.648 358.696 41.444C358.492 41.206 358.39 40.917 358.39 40.577V36.854C358.39 36.514 358.492 36.242 358.696 36.038C358.9 35.8 359.172 35.681 359.512 35.681H375.322C375.662 35.681 375.934 35.8 376.138 36.038C376.376 36.242 376.495 36.514 376.495 36.854V40.577C376.495 40.917 376.376 41.206 376.138 41.444C375.934 41.648 375.662 41.75 375.322 41.75H359.512ZM390.755 80C390.415 80 390.109 79.881 389.837 79.643C389.599 79.371 389.48 79.065 389.48 78.725V45.575C389.48 45.201 389.599 44.895 389.837 44.657C390.109 44.419 390.415 44.3 390.755 44.3H404.627C409.081 44.3 412.549 45.32 415.031 47.36C417.547 49.366 418.805 52.222 418.805 55.928C418.805 58.308 418.244 60.331 417.122 61.997C416 63.663 414.453 64.938 412.481 65.822L419.468 78.368C419.57 78.572 419.621 78.759 419.621 78.929C419.621 79.201 419.502 79.456 419.264 79.694C419.06 79.898 418.822 80 418.55 80H411.767C410.781 80 410.084 79.541 409.676 78.623L403.862 67.403H398.66V78.725C398.66 79.099 398.524 79.405 398.252 79.643C398.014 79.881 397.708 80 397.334 80H390.755ZM404.525 60.161C406.089 60.161 407.279 59.787 408.095 59.039C408.911 58.257 409.319 57.186 409.319 55.826C409.319 54.466 408.911 53.395 408.095 52.613C407.313 51.797 406.123 51.389 404.525 51.389H398.66V60.161H404.525ZM439.178 80.51C434.384 80.51 430.61 79.337 427.856 76.991C425.102 74.645 423.64 71.194 423.47 66.638C423.436 65.652 423.419 64.19 423.419 62.252C423.419 60.28 423.436 58.801 423.47 57.815C423.64 53.327 425.119 49.876 427.907 47.462C430.729 45.014 434.486 43.79 439.178 43.79C443.87 43.79 447.627 45.014 450.449 47.462C453.271 49.876 454.75 53.327 454.886 57.815C454.954 59.787 454.988 61.266 454.988 62.252C454.988 63.204 454.954 64.666 454.886 66.638C454.716 71.194 453.254 74.645 450.5 76.991C447.746 79.337 443.972 80.51 439.178 80.51ZM439.178 73.166C441.048 73.166 442.527 72.605 443.615 71.483C444.737 70.361 445.332 68.644 445.4 66.332C445.468 64.36 445.502 62.966 445.502 62.15C445.502 61.266 445.468 59.872 445.4 57.968C445.332 55.656 444.737 53.939 443.615 52.817C442.493 51.695 441.014 51.134 439.178 51.134C437.342 51.134 435.863 51.695 434.741 52.817C433.653 53.939 433.058 55.656 432.956 57.968C432.922 58.92 432.905 60.314 432.905 62.15C432.905 63.952 432.922 65.346 432.956 66.332C433.058 68.644 433.653 70.361 434.741 71.483C435.829 72.605 437.308 73.166 439.178 73.166ZM462.175 80C461.835 80 461.529 79.881 461.257 79.643C461.019 79.371 460.9 79.065 460.9 78.725V45.575C460.9 45.201 461.019 44.895 461.257 44.657C461.529 44.419 461.835 44.3 462.175 44.3H467.581C468.431 44.3 469.009 44.623 469.315 45.269L481.759 64.853V45.575C481.759 45.201 481.878 44.895 482.116 44.657C482.388 44.419 482.694 44.3 483.034 44.3H489.154C489.528 44.3 489.834 44.419 490.072 44.657C490.31 44.895 490.429 45.201 490.429 45.575V78.674C490.429 79.048 490.31 79.371 490.072 79.643C489.834 79.881 489.528 80 489.154 80H483.697C482.949 80 482.388 79.677 482.014 79.031L469.57 60.161V78.725C469.57 79.065 469.451 79.371 469.213 79.643C468.975 79.881 468.669 80 468.295 80H462.175ZM512.295 80.51C507.399 80.51 503.574 79.32 500.82 76.94C498.066 74.526 496.604 71.109 496.434 66.689C496.4 65.703 496.383 64.139 496.383 61.997C496.383 59.855 496.4 58.291 496.434 57.305C496.604 52.987 498.083 49.655 500.871 47.309C503.693 44.963 507.501 43.79 512.295 43.79C515.525 43.79 518.33 44.317 520.71 45.371C523.124 46.425 524.96 47.768 526.218 49.4C527.51 51.032 528.19 52.715 528.258 54.449C528.258 54.755 528.139 55.01 527.901 55.214C527.697 55.418 527.442 55.52 527.136 55.52H519.69C519.35 55.52 519.078 55.469 518.874 55.367C518.67 55.265 518.5 55.078 518.364 54.806C517.922 53.82 517.225 52.97 516.273 52.256C515.321 51.508 513.995 51.134 512.295 51.134C508.249 51.134 506.124 53.276 505.92 57.56C505.886 58.512 505.869 59.991 505.869 61.997C505.869 63.969 505.886 65.448 505.92 66.434C506.124 70.922 508.3 73.166 512.448 73.166C514.454 73.166 516.052 72.656 517.242 71.636C518.466 70.582 519.078 68.984 519.078 66.842V65.873H514.284C513.91 65.873 513.604 65.754 513.366 65.516C513.128 65.244 513.009 64.921 513.009 64.547V60.773C513.009 60.399 513.128 60.093 513.366 59.855C513.604 59.583 513.91 59.447 514.284 59.447H527.136C527.51 59.447 527.816 59.583 528.054 59.855C528.292 60.093 528.411 60.399 528.411 60.773V66.587C528.411 69.477 527.748 71.976 526.422 74.084C525.096 76.158 523.209 77.756 520.761 78.878C518.347 79.966 515.525 80.51 512.295 80.51ZM548.848 80.51C544.054 80.51 540.28 79.337 537.526 76.991C534.772 74.645 533.31 71.194 533.14 66.638C533.106 65.652 533.089 64.19 533.089 62.252C533.089 60.28 533.106 58.801 533.14 57.815C533.31 53.327 534.789 49.876 537.577 47.462C540.399 45.014 544.156 43.79 548.848 43.79C553.54 43.79 557.297 45.014 560.119 47.462C562.941 49.876 564.42 53.327 564.556 57.815C564.624 59.787 564.658 61.266 564.658 62.252C564.658 63.204 564.624 64.666 564.556 66.638C564.386 71.194 562.924 74.645 560.17 76.991C557.416 79.337 553.642 80.51 548.848 80.51ZM548.848 73.166C550.718 73.166 552.197 72.605 553.285 71.483C554.407 70.361 555.002 68.644 555.07 66.332C555.138 64.36 555.172 62.966 555.172 62.15C555.172 61.266 555.138 59.872 555.07 57.968C555.002 55.656 554.407 53.939 553.285 52.817C552.163 51.695 550.684 51.134 548.848 51.134C547.012 51.134 545.533 51.695 544.411 52.817C543.323 53.939 542.728 55.656 542.626 57.968C542.592 58.92 542.575 60.314 542.575 62.15C542.575 63.952 542.592 65.346 542.626 66.332C542.728 68.644 543.323 70.361 544.411 71.483C545.499 72.605 546.978 73.166 548.848 73.166Z" fill="#E1E1E6"/>
<path d="M155.02 131.779C154.797 131.779 154.587 131.695 154.391 131.527C154.223 131.332 154.14 131.122 154.14 130.898C154.14 130.73 154.153 130.605 154.181 130.521L164.038 103.594C164.122 103.258 164.304 102.979 164.583 102.755C164.863 102.531 165.226 102.419 165.674 102.419H171.881C172.328 102.419 172.692 102.531 172.972 102.755C173.251 102.979 173.433 103.258 173.517 103.594L183.331 130.521L183.415 130.898C183.415 131.122 183.317 131.332 183.122 131.527C182.954 131.695 182.744 131.779 182.493 131.779H177.334C176.663 131.779 176.215 131.485 175.991 130.898L174.356 126.62H163.157L161.563 130.898C161.34 131.485 160.878 131.779 160.179 131.779H155.02ZM172.678 120.58L168.777 109.508L164.877 120.58H172.678Z" fill="#E1E1E6"/>
<path d="M224.736 132.198C220.793 132.198 217.689 131.234 215.424 129.304C213.16 127.375 211.957 124.537 211.817 120.79C211.789 119.979 211.775 118.777 211.775 117.183C211.775 115.561 211.789 114.345 211.817 113.534C211.957 109.843 213.173 107.005 215.466 105.02C217.787 103.007 220.877 102 224.736 102C228.594 102 231.684 103.007 234.005 105.02C236.326 107.005 237.542 109.843 237.654 113.534C237.71 115.156 237.738 116.372 237.738 117.183C237.738 117.966 237.71 119.168 237.654 120.79C237.514 124.537 236.312 127.375 234.047 129.304C231.782 131.234 228.678 132.198 224.736 132.198ZM224.736 126.159C226.273 126.159 227.49 125.697 228.385 124.775C229.307 123.852 229.797 122.44 229.853 120.538C229.908 118.917 229.936 117.77 229.936 117.099C229.936 116.372 229.908 115.226 229.853 113.66C229.797 111.759 229.307 110.347 228.385 109.424C227.462 108.501 226.246 108.04 224.736 108.04C223.226 108.04 222.009 108.501 221.087 109.424C220.192 110.347 219.703 111.759 219.619 113.66C219.591 114.443 219.577 115.589 219.577 117.099C219.577 118.581 219.591 119.728 219.619 120.538C219.703 122.44 220.192 123.852 221.087 124.775C221.981 125.697 223.198 126.159 224.736 126.159Z" fill="#E1E1E6"/>
<path d="M276.29 131.779C276.01 131.779 275.759 131.681 275.535 131.485C275.339 131.262 275.241 131.01 275.241 130.73V109.004H267.776C267.496 109.004 267.244 108.906 267.021 108.711C266.825 108.487 266.727 108.235 266.727 107.956V103.468C266.727 103.16 266.825 102.909 267.021 102.713C267.244 102.517 267.496 102.419 267.776 102.419H290.341C290.648 102.419 290.9 102.517 291.095 102.713C291.291 102.909 291.389 103.16 291.389 103.468V107.956C291.389 108.263 291.291 108.515 291.095 108.711C290.9 108.906 290.648 109.004 290.341 109.004H282.875V130.73C282.875 131.01 282.777 131.262 282.581 131.485C282.385 131.681 282.134 131.779 281.826 131.779H276.29Z" fill="#E1E1E6"/>
<path d="M322.883 131.779C322.603 131.779 322.352 131.681 322.128 131.485C321.932 131.262 321.834 131.01 321.834 130.73V103.468C321.834 103.16 321.932 102.909 322.128 102.713C322.352 102.517 322.603 102.419 322.883 102.419H342.47C342.777 102.419 343.029 102.517 343.225 102.713C343.421 102.909 343.518 103.16 343.518 103.468V107.411C343.518 107.69 343.421 107.942 343.225 108.166C343.029 108.361 342.777 108.459 342.47 108.459H329.09V114.121H341.547C341.855 114.121 342.106 114.233 342.302 114.457C342.498 114.653 342.596 114.904 342.596 115.212V118.861C342.596 119.14 342.498 119.392 342.302 119.616C342.106 119.811 341.855 119.909 341.547 119.909H329.09V125.739H342.805C343.113 125.739 343.365 125.837 343.56 126.033C343.756 126.229 343.854 126.48 343.854 126.788V130.73C343.854 131.01 343.756 131.262 343.56 131.485C343.365 131.681 343.113 131.779 342.805 131.779H322.883Z" fill="#E1E1E6"/>
<path d="M373.577 131.779C373.354 131.779 373.144 131.695 372.948 131.527C372.78 131.332 372.697 131.122 372.697 130.898C372.697 130.73 372.71 130.605 372.738 130.521L382.595 103.594C382.679 103.258 382.861 102.979 383.14 102.755C383.42 102.531 383.783 102.419 384.231 102.419H390.438C390.885 102.419 391.249 102.531 391.529 102.755C391.808 102.979 391.99 103.258 392.074 103.594L401.888 130.521L401.972 130.898C401.972 131.122 401.874 131.332 401.679 131.527C401.511 131.695 401.301 131.779 401.049 131.779H395.891C395.22 131.779 394.772 131.485 394.548 130.898L392.913 126.62H381.714L380.12 130.898C379.897 131.485 379.435 131.779 378.736 131.779H373.577ZM391.235 120.58L387.334 109.508L383.434 120.58H391.235Z" fill="#E1E1E6"/>
<path d="M443.293 132.198C439.35 132.198 436.246 131.234 433.981 129.304C431.716 127.375 430.514 124.537 430.374 120.79C430.346 119.979 430.332 118.777 430.332 117.183C430.332 115.561 430.346 114.345 430.374 113.534C430.514 109.843 431.73 107.005 434.023 105.02C436.344 103.007 439.434 102 443.293 102C447.151 102 450.241 103.007 452.562 105.02C454.883 107.005 456.099 109.843 456.211 113.534C456.267 115.156 456.295 116.372 456.295 117.183C456.295 117.966 456.267 119.168 456.211 120.79C456.071 124.537 454.869 127.375 452.604 129.304C450.339 131.234 447.235 132.198 443.293 132.198ZM443.293 126.159C444.83 126.159 446.047 125.697 446.942 124.775C447.864 123.852 448.354 122.44 448.41 120.538C448.465 118.917 448.493 117.77 448.493 117.099C448.493 116.372 448.465 115.226 448.41 113.66C448.354 111.759 447.864 110.347 446.942 109.424C446.019 108.501 444.803 108.04 443.293 108.04C441.783 108.04 440.566 108.501 439.644 109.424C438.749 110.347 438.26 111.759 438.176 113.66C438.148 114.443 438.134 115.589 438.134 117.099C438.134 118.581 438.148 119.728 438.176 120.538C438.26 122.44 438.749 123.852 439.644 124.775C440.538 125.697 441.755 126.159 443.293 126.159Z" fill="#E1E1E6"/>
<path d="M488.838 131.779C488.559 131.779 488.307 131.681 488.083 131.485C487.888 131.262 487.79 131.01 487.79 130.73V103.468C487.79 103.16 487.888 102.909 488.083 102.713C488.307 102.517 488.559 102.419 488.838 102.419H500.247C503.91 102.419 506.762 103.258 508.803 104.936C510.872 106.586 511.907 108.934 511.907 111.982C511.907 113.94 511.445 115.603 510.522 116.973C509.6 118.344 508.327 119.392 506.706 120.119L512.452 130.437C512.536 130.605 512.578 130.758 512.578 130.898C512.578 131.122 512.48 131.332 512.284 131.527C512.116 131.695 511.921 131.779 511.697 131.779H506.119C505.308 131.779 504.734 131.402 504.399 130.647L499.617 121.419H495.339V130.73C495.339 131.038 495.228 131.29 495.004 131.485C494.808 131.681 494.556 131.779 494.249 131.779H488.838ZM500.163 115.463C501.449 115.463 502.428 115.156 503.099 114.541C503.77 113.898 504.105 113.017 504.105 111.898C504.105 110.78 503.77 109.899 503.099 109.256C502.456 108.585 501.477 108.249 500.163 108.249H495.339V115.463H500.163Z" fill="#E1E1E6"/>
<path d="M541.745 131.779C541.521 131.779 541.311 131.695 541.115 131.527C540.948 131.332 540.864 131.122 540.864 130.898C540.864 130.73 540.878 130.605 540.906 130.521L550.762 103.594C550.846 103.258 551.028 102.979 551.307 102.755C551.587 102.531 551.951 102.419 552.398 102.419H558.605C559.053 102.419 559.416 102.531 559.696 102.755C559.976 102.979 560.157 103.258 560.241 103.594L570.056 130.521L570.139 130.898C570.139 131.122 570.042 131.332 569.846 131.527C569.678 131.695 569.468 131.779 569.217 131.779H564.058C563.387 131.779 562.939 131.485 562.716 130.898L561.08 126.62H549.881L548.288 130.898C548.064 131.485 547.603 131.779 546.903 131.779H541.745ZM559.402 120.58L555.502 109.508L551.601 120.58H559.402Z" fill="#E1E1E6"/>
</g>
<defs>
<clipPath id="clip0">
<rect width="599" height="166" fill="white"/>
</clipPath>
</defs>
</svg>
