<svg width="518" height="100" viewBox="0 0 518 100" fill="none" xmlns="http://www.w3.org/2000/svg">
<path d="M17.0092 97C17.0092 97 9.04391 94.1145 8.69635 93.998C8.35069 93.8834 2.34666 92.6134 2.34666 92.6134L0.5 89.959L5.34868 81.1859L12.1605 74.7217L27.0522 64.5622L30.0542 56.7115L33.5184 53.3638L33.9805 49.785L37.0971 46.4374L40.2137 51.9793L44.0235 49.6705L46.4488 51.4025L45.4099 54.6356L46.3342 56.4823L41.371 65.3719L38.1379 67.4496L37.9068 69.7584L40.5613 71.8361L38.9457 74.0303L32.1339 75.5314L28.7862 78.3023L27.7473 83.9588L23.4754 91.8095L17.0092 97Z" fill="#9466FF"/>
<path d="M52.6839 55.2085L48.5266 52.6687L51.9907 47.3578L50.4897 41.5849L43.6779 38.6994L43.5633 36.3905L48.412 33.6196L49.5654 27.9631L47.0255 17.9182L39.637 6.95092L44.14 5.33533L48.5495 14.1867L54.4141 18.959L56.6083 24.8465L63.7658 27.9631L68.4999 24.6155L71.5 25.5378L70.2301 31.8875L68.0378 36.8527L63.0726 36.9673L62.8415 40.3149L58.8025 48.8589L56.4918 52.8997L52.6839 55.2085Z" fill="#9466FF"/>
<path d="M119.08 47.51C114.184 47.51 110.359 46.32 107.605 43.94C104.851 41.526 103.389 38.109 103.219 33.689C103.185 32.703 103.168 31.139 103.168 28.997C103.168 26.855 103.185 25.291 103.219 24.305C103.389 19.987 104.868 16.655 107.656 14.309C110.478 11.963 114.286 10.79 119.08 10.79C122.31 10.79 125.115 11.317 127.495 12.371C129.909 13.425 131.745 14.768 133.003 16.4C134.295 18.032 134.975 19.715 135.043 21.449C135.043 21.755 134.924 22.01 134.686 22.214C134.482 22.418 134.227 22.52 133.921 22.52H126.475C126.135 22.52 125.863 22.469 125.659 22.367C125.455 22.265 125.285 22.078 125.149 21.806C124.707 20.82 124.01 19.97 123.058 19.256C122.106 18.508 120.78 18.134 119.08 18.134C115.034 18.134 112.909 20.276 112.705 24.56C112.671 25.512 112.654 26.991 112.654 28.997C112.654 30.969 112.671 32.448 112.705 33.434C112.909 37.922 115.085 40.166 119.233 40.166C121.239 40.166 122.837 39.656 124.027 38.636C125.251 37.582 125.863 35.984 125.863 33.842V32.873H121.069C120.695 32.873 120.389 32.754 120.151 32.516C119.913 32.244 119.794 31.921 119.794 31.547V27.773C119.794 27.399 119.913 27.093 120.151 26.855C120.389 26.583 120.695 26.447 121.069 26.447H133.921C134.295 26.447 134.601 26.583 134.839 26.855C135.077 27.093 135.196 27.399 135.196 27.773V33.587C135.196 36.477 134.533 38.976 133.207 41.084C131.881 43.158 129.994 44.756 127.546 45.878C125.132 46.966 122.31 47.51 119.08 47.51ZM138.21 47C137.938 47 137.683 46.898 137.445 46.694C137.241 46.456 137.139 46.201 137.139 45.929C137.139 45.725 137.156 45.572 137.19 45.47L149.175 12.728C149.277 12.32 149.498 11.98 149.838 11.708C150.178 11.436 150.62 11.3 151.164 11.3H158.712C159.256 11.3 159.698 11.436 160.038 11.708C160.378 11.98 160.599 12.32 160.701 12.728L172.635 45.47L172.737 45.929C172.737 46.201 172.618 46.456 172.38 46.694C172.176 46.898 171.921 47 171.615 47H165.342C164.526 47 163.982 46.643 163.71 45.929L161.721 40.727H148.104L146.166 45.929C145.894 46.643 145.333 47 144.483 47H138.21ZM159.681 33.383L154.938 19.919L150.195 33.383H159.681ZM178.032 47C177.692 47 177.386 46.881 177.114 46.643C176.876 46.371 176.757 46.065 176.757 45.725V12.575C176.757 12.201 176.876 11.895 177.114 11.657C177.386 11.419 177.692 11.3 178.032 11.3H183.54C184.356 11.3 184.951 11.674 185.325 12.422L194.301 28.487L203.277 12.422C203.651 11.674 204.246 11.3 205.062 11.3H210.519C210.893 11.3 211.199 11.419 211.437 11.657C211.709 11.895 211.845 12.201 211.845 12.575V45.725C211.845 46.099 211.709 46.405 211.437 46.643C211.199 46.881 210.893 47 210.519 47H204.45C204.076 47 203.753 46.881 203.481 46.643C203.243 46.405 203.124 46.099 203.124 45.725V26.6L197.412 37.259C196.97 38.041 196.375 38.432 195.627 38.432H192.975C192.533 38.432 192.176 38.33 191.904 38.126C191.632 37.922 191.394 37.633 191.19 37.259L185.427 26.6V45.725C185.427 46.065 185.308 46.371 185.07 46.643C184.832 46.881 184.526 47 184.152 47H178.032ZM216.951 47C216.679 47 216.424 46.898 216.186 46.694C215.982 46.456 215.88 46.201 215.88 45.929C215.88 45.725 215.897 45.572 215.931 45.47L227.916 12.728C228.018 12.32 228.239 11.98 228.579 11.708C228.919 11.436 229.361 11.3 229.905 11.3H237.453C237.997 11.3 238.439 11.436 238.779 11.708C239.119 11.98 239.34 12.32 239.442 12.728L251.376 45.47L251.478 45.929C251.478 46.201 251.359 46.456 251.121 46.694C250.917 46.898 250.662 47 250.356 47H244.083C243.267 47 242.723 46.643 242.451 45.929L240.462 40.727H226.845L224.907 45.929C224.635 46.643 224.074 47 223.224 47H216.951ZM238.422 33.383L233.679 19.919L228.936 33.383H238.422ZM266.335 47C265.995 47 265.689 46.881 265.417 46.643C265.179 46.371 265.06 46.065 265.06 45.725V12.575C265.06 12.201 265.179 11.895 265.417 11.657C265.689 11.419 265.995 11.3 266.335 11.3H280.615C284.967 11.3 288.384 12.303 290.866 14.309C293.382 16.315 294.64 19.239 294.64 23.081C294.64 26.889 293.399 29.762 290.917 31.7C288.435 33.604 285.001 34.556 280.615 34.556H274.546V45.725C274.546 46.099 274.41 46.405 274.138 46.643C273.9 46.881 273.594 47 273.22 47H266.335ZM280.36 27.518C281.856 27.518 283.029 27.144 283.879 26.396C284.729 25.614 285.154 24.475 285.154 22.979C285.154 21.585 284.746 20.48 283.93 19.664C283.148 18.814 281.958 18.389 280.36 18.389H274.393V27.518H280.36ZM314.519 47.51C309.725 47.51 305.968 46.337 303.248 43.991C300.562 41.645 299.219 38.109 299.219 33.383V12.575C299.219 12.201 299.338 11.895 299.576 11.657C299.848 11.419 300.154 11.3 300.494 11.3H307.073C307.447 11.3 307.753 11.419 307.991 11.657C308.263 11.895 308.399 12.201 308.399 12.575V33.332C308.399 35.542 308.909 37.208 309.929 38.33C310.983 39.418 312.496 39.962 314.468 39.962C316.406 39.962 317.902 39.401 318.956 38.279C320.01 37.157 320.537 35.508 320.537 33.332V12.575C320.537 12.201 320.656 11.895 320.894 11.657C321.166 11.419 321.472 11.3 321.812 11.3H328.442C328.816 11.3 329.122 11.419 329.36 11.657C329.598 11.895 329.717 12.201 329.717 12.575V33.383C329.717 38.109 328.357 41.645 325.637 43.991C322.951 46.337 319.245 47.51 314.519 47.51ZM306.512 8.75C306.172 8.75 305.9 8.648 305.696 8.444C305.492 8.206 305.39 7.917 305.39 7.577V3.854C305.39 3.514 305.492 3.242 305.696 3.038C305.9 2.8 306.172 2.681 306.512 2.681H322.322C322.662 2.681 322.934 2.8 323.138 3.038C323.376 3.242 323.495 3.514 323.495 3.854V7.577C323.495 7.917 323.376 8.206 323.138 8.444C322.934 8.648 322.662 8.75 322.322 8.75H306.512ZM337.755 47C337.415 47 337.109 46.881 336.837 46.643C336.599 46.371 336.48 46.065 336.48 45.725V12.575C336.48 12.201 336.599 11.895 336.837 11.657C337.109 11.419 337.415 11.3 337.755 11.3H351.627C356.081 11.3 359.549 12.32 362.031 14.36C364.547 16.366 365.805 19.222 365.805 22.928C365.805 25.308 365.244 27.331 364.122 28.997C363 30.663 361.453 31.938 359.481 32.822L366.468 45.368C366.57 45.572 366.621 45.759 366.621 45.929C366.621 46.201 366.502 46.456 366.264 46.694C366.06 46.898 365.822 47 365.55 47H358.767C357.781 47 357.084 46.541 356.676 45.623L350.862 34.403H345.66V45.725C345.66 46.099 345.524 46.405 345.252 46.643C345.014 46.881 344.708 47 344.334 47H337.755ZM351.525 27.161C353.089 27.161 354.279 26.787 355.095 26.039C355.911 25.257 356.319 24.186 356.319 22.826C356.319 21.466 355.911 20.395 355.095 19.613C354.313 18.797 353.123 18.389 351.525 18.389H345.66V27.161H351.525ZM386.178 47.51C381.384 47.51 377.61 46.337 374.856 43.991C372.102 41.645 370.64 38.194 370.47 33.638C370.436 32.652 370.419 31.19 370.419 29.252C370.419 27.28 370.436 25.801 370.47 24.815C370.64 20.327 372.119 16.876 374.907 14.462C377.729 12.014 381.486 10.79 386.178 10.79C390.87 10.79 394.627 12.014 397.449 14.462C400.271 16.876 401.75 20.327 401.886 24.815C401.954 26.787 401.988 28.266 401.988 29.252C401.988 30.204 401.954 31.666 401.886 33.638C401.716 38.194 400.254 41.645 397.5 43.991C394.746 46.337 390.972 47.51 386.178 47.51ZM386.178 40.166C388.048 40.166 389.527 39.605 390.615 38.483C391.737 37.361 392.332 35.644 392.4 33.332C392.468 31.36 392.502 29.966 392.502 29.15C392.502 28.266 392.468 26.872 392.4 24.968C392.332 22.656 391.737 20.939 390.615 19.817C389.493 18.695 388.014 18.134 386.178 18.134C384.342 18.134 382.863 18.695 381.741 19.817C380.653 20.939 380.058 22.656 379.956 24.968C379.922 25.92 379.905 27.314 379.905 29.15C379.905 30.952 379.922 32.346 379.956 33.332C380.058 35.644 380.653 37.361 381.741 38.483C382.829 39.605 384.308 40.166 386.178 40.166ZM409.175 47C408.835 47 408.529 46.881 408.257 46.643C408.019 46.371 407.9 46.065 407.9 45.725V12.575C407.9 12.201 408.019 11.895 408.257 11.657C408.529 11.419 408.835 11.3 409.175 11.3H414.581C415.431 11.3 416.009 11.623 416.315 12.269L428.759 31.853V12.575C428.759 12.201 428.878 11.895 429.116 11.657C429.388 11.419 429.694 11.3 430.034 11.3H436.154C436.528 11.3 436.834 11.419 437.072 11.657C437.31 11.895 437.429 12.201 437.429 12.575V45.674C437.429 46.048 437.31 46.371 437.072 46.643C436.834 46.881 436.528 47 436.154 47H430.697C429.949 47 429.388 46.677 429.014 46.031L416.57 27.161V45.725C416.57 46.065 416.451 46.371 416.213 46.643C415.975 46.881 415.669 47 415.295 47H409.175ZM459.295 47.51C454.399 47.51 450.574 46.32 447.82 43.94C445.066 41.526 443.604 38.109 443.434 33.689C443.4 32.703 443.383 31.139 443.383 28.997C443.383 26.855 443.4 25.291 443.434 24.305C443.604 19.987 445.083 16.655 447.871 14.309C450.693 11.963 454.501 10.79 459.295 10.79C462.525 10.79 465.33 11.317 467.71 12.371C470.124 13.425 471.96 14.768 473.218 16.4C474.51 18.032 475.19 19.715 475.258 21.449C475.258 21.755 475.139 22.01 474.901 22.214C474.697 22.418 474.442 22.52 474.136 22.52H466.69C466.35 22.52 466.078 22.469 465.874 22.367C465.67 22.265 465.5 22.078 465.364 21.806C464.922 20.82 464.225 19.97 463.273 19.256C462.321 18.508 460.995 18.134 459.295 18.134C455.249 18.134 453.124 20.276 452.92 24.56C452.886 25.512 452.869 26.991 452.869 28.997C452.869 30.969 452.886 32.448 452.92 33.434C453.124 37.922 455.3 40.166 459.448 40.166C461.454 40.166 463.052 39.656 464.242 38.636C465.466 37.582 466.078 35.984 466.078 33.842V32.873H461.284C460.91 32.873 460.604 32.754 460.366 32.516C460.128 32.244 460.009 31.921 460.009 31.547V27.773C460.009 27.399 460.128 27.093 460.366 26.855C460.604 26.583 460.91 26.447 461.284 26.447H474.136C474.51 26.447 474.816 26.583 475.054 26.855C475.292 27.093 475.411 27.399 475.411 27.773V33.587C475.411 36.477 474.748 38.976 473.422 41.084C472.096 43.158 470.209 44.756 467.761 45.878C465.347 46.966 462.525 47.51 459.295 47.51ZM495.848 47.51C491.054 47.51 487.28 46.337 484.526 43.991C481.772 41.645 480.31 38.194 480.14 33.638C480.106 32.652 480.089 31.19 480.089 29.252C480.089 27.28 480.106 25.801 480.14 24.815C480.31 20.327 481.789 16.876 484.577 14.462C487.399 12.014 491.156 10.79 495.848 10.79C500.54 10.79 504.297 12.014 507.119 14.462C509.941 16.876 511.42 20.327 511.556 24.815C511.624 26.787 511.658 28.266 511.658 29.252C511.658 30.204 511.624 31.666 511.556 33.638C511.386 38.194 509.924 41.645 507.17 43.991C504.416 46.337 500.642 47.51 495.848 47.51ZM495.848 40.166C497.718 40.166 499.197 39.605 500.285 38.483C501.407 37.361 502.002 35.644 502.07 33.332C502.138 31.36 502.172 29.966 502.172 29.15C502.172 28.266 502.138 26.872 502.07 24.968C502.002 22.656 501.407 20.939 500.285 19.817C499.163 18.695 497.684 18.134 495.848 18.134C494.012 18.134 492.533 18.695 491.411 19.817C490.323 20.939 489.728 22.656 489.626 24.968C489.592 25.92 489.575 27.314 489.575 29.15C489.575 30.952 489.592 32.346 489.626 33.332C489.728 35.644 490.323 37.361 491.411 38.483C492.499 39.605 493.978 40.166 495.848 40.166Z" fill="#9466FF"/>
<path d="M102.02 98.779C101.797 98.779 101.587 98.6951 101.391 98.5274C101.223 98.3316 101.14 98.1219 101.14 97.8982C101.14 97.7305 101.153 97.6046 101.181 97.5208L111.038 70.5938C111.122 70.2583 111.304 69.9787 111.583 69.755C111.863 69.5313 112.226 69.4194 112.674 69.4194H118.881C119.328 69.4194 119.692 69.5313 119.972 69.755C120.251 69.9787 120.433 70.2583 120.517 70.5938L130.331 97.5208L130.415 97.8982C130.415 98.1219 130.317 98.3316 130.122 98.5274C129.954 98.6951 129.744 98.779 129.493 98.779H124.334C123.663 98.779 123.215 98.4854 122.991 97.8982L121.356 93.6201H110.157L108.563 97.8982C108.34 98.4854 107.878 98.779 107.179 98.779H102.02ZM119.678 87.5804L115.777 76.5077L111.877 87.5804H119.678Z" fill="#9466FF"/>
<path d="M171.736 99.1984C167.793 99.1984 164.689 98.2338 162.424 96.3044C160.16 94.3751 158.957 91.537 158.817 87.7901C158.789 86.9793 158.775 85.7769 158.775 84.1831C158.775 82.5613 158.789 81.345 158.817 80.5341C158.957 76.8432 160.173 74.0051 162.466 72.0198C164.787 70.0066 167.877 69 171.736 69C175.594 69 178.684 70.0066 181.005 72.0198C183.326 74.0051 184.542 76.8432 184.654 80.5341C184.71 82.1559 184.738 83.3722 184.738 84.1831C184.738 84.966 184.71 86.1684 184.654 87.7901C184.514 91.537 183.312 94.3751 181.047 96.3044C178.782 98.2338 175.678 99.1984 171.736 99.1984ZM171.736 93.1588C173.273 93.1588 174.49 92.6974 175.385 91.7747C176.307 90.8519 176.797 89.4399 176.853 87.5385C176.908 85.9167 176.936 84.7703 176.936 84.0992C176.936 83.3722 176.908 82.2258 176.853 80.66C176.797 78.7586 176.307 77.3465 175.385 76.4238C174.462 75.5011 173.246 75.0397 171.736 75.0397C170.226 75.0397 169.009 75.5011 168.087 76.4238C167.192 77.3465 166.703 78.7586 166.619 80.66C166.591 81.4429 166.577 82.5893 166.577 84.0992C166.577 85.5812 166.591 86.7276 166.619 87.5385C166.703 89.4399 167.192 90.8519 168.087 91.7747C168.981 92.6974 170.198 93.1588 171.736 93.1588Z" fill="#9466FF"/>
<path d="M223.29 98.779C223.01 98.779 222.759 98.6812 222.535 98.4854C222.339 98.2617 222.241 98.0101 222.241 97.7305V76.0044H214.776C214.496 76.0044 214.244 75.9065 214.021 75.7108C213.825 75.4871 213.727 75.2354 213.727 74.9558V70.468C213.727 70.1604 213.825 69.9087 214.021 69.713C214.244 69.5173 214.496 69.4194 214.776 69.4194H237.341C237.648 69.4194 237.9 69.5173 238.095 69.713C238.291 69.9087 238.389 70.1604 238.389 70.468V74.9558C238.389 75.2634 238.291 75.515 238.095 75.7108C237.9 75.9065 237.648 76.0044 237.341 76.0044H229.875V97.7305C229.875 98.0101 229.777 98.2617 229.581 98.4854C229.385 98.6812 229.134 98.779 228.826 98.779H223.29Z" fill="#9466FF"/>
<path d="M269.883 98.779C269.603 98.779 269.352 98.6812 269.128 98.4854C268.932 98.2617 268.834 98.0101 268.834 97.7305V70.468C268.834 70.1604 268.932 69.9087 269.128 69.713C269.352 69.5173 269.603 69.4194 269.883 69.4194H289.47C289.777 69.4194 290.029 69.5173 290.225 69.713C290.421 69.9087 290.518 70.1604 290.518 70.468V74.4106C290.518 74.6902 290.421 74.9418 290.225 75.1655C290.029 75.3612 289.777 75.4591 289.47 75.4591H276.09V81.1213H288.547C288.855 81.1213 289.106 81.2332 289.302 81.4569C289.498 81.6526 289.596 81.9042 289.596 82.2118V85.8608C289.596 86.1404 289.498 86.3921 289.302 86.6158C289.106 86.8115 288.855 86.9094 288.547 86.9094H276.09V92.7393H289.805C290.113 92.7393 290.365 92.8372 290.56 93.0329C290.756 93.2287 290.854 93.4803 290.854 93.7879V97.7305C290.854 98.0101 290.756 98.2617 290.56 98.4854C290.365 98.6812 290.113 98.779 289.805 98.779H269.883Z" fill="#9466FF"/>
<path d="M320.577 98.779C320.354 98.779 320.144 98.6951 319.948 98.5274C319.78 98.3316 319.697 98.1219 319.697 97.8982C319.697 97.7305 319.71 97.6046 319.738 97.5208L329.595 70.5938C329.679 70.2583 329.861 69.9787 330.14 69.755C330.42 69.5313 330.783 69.4194 331.231 69.4194H337.438C337.885 69.4194 338.249 69.5313 338.529 69.755C338.808 69.9787 338.99 70.2583 339.074 70.5938L348.888 97.5208L348.972 97.8982C348.972 98.1219 348.874 98.3316 348.679 98.5274C348.511 98.6951 348.301 98.779 348.049 98.779H342.891C342.22 98.779 341.772 98.4854 341.548 97.8982L339.913 93.6201H328.714L327.12 97.8982C326.897 98.4854 326.435 98.779 325.736 98.779H320.577ZM338.235 87.5804L334.334 76.5077L330.434 87.5804H338.235Z" fill="#9466FF"/>
<path d="M390.293 99.1984C386.35 99.1984 383.246 98.2338 380.981 96.3044C378.716 94.3751 377.514 91.537 377.374 87.7901C377.346 86.9793 377.332 85.7769 377.332 84.1831C377.332 82.5613 377.346 81.345 377.374 80.5341C377.514 76.8432 378.73 74.0051 381.023 72.0198C383.344 70.0066 386.434 69 390.293 69C394.151 69 397.241 70.0066 399.562 72.0198C401.883 74.0051 403.099 76.8432 403.211 80.5341C403.267 82.1559 403.295 83.3722 403.295 84.1831C403.295 84.966 403.267 86.1684 403.211 87.7901C403.071 91.537 401.869 94.3751 399.604 96.3044C397.339 98.2338 394.235 99.1984 390.293 99.1984ZM390.293 93.1588C391.83 93.1588 393.047 92.6974 393.942 91.7747C394.864 90.8519 395.354 89.4399 395.41 87.5385C395.465 85.9167 395.493 84.7703 395.493 84.0992C395.493 83.3722 395.465 82.2258 395.41 80.66C395.354 78.7586 394.864 77.3465 393.942 76.4238C393.019 75.5011 391.803 75.0397 390.293 75.0397C388.783 75.0397 387.566 75.5011 386.644 76.4238C385.749 77.3465 385.26 78.7586 385.176 80.66C385.148 81.4429 385.134 82.5893 385.134 84.0992C385.134 85.5812 385.148 86.7276 385.176 87.5385C385.26 89.4399 385.749 90.8519 386.644 91.7747C387.538 92.6974 388.755 93.1588 390.293 93.1588Z" fill="#9466FF"/>
<path d="M435.838 98.779C435.559 98.779 435.307 98.6812 435.083 98.4854C434.888 98.2617 434.79 98.0101 434.79 97.7305V70.468C434.79 70.1604 434.888 69.9087 435.083 69.713C435.307 69.5173 435.559 69.4194 435.838 69.4194H447.247C450.91 69.4194 453.762 70.2583 455.803 71.936C457.872 73.5857 458.907 75.9345 458.907 78.9823C458.907 80.9396 458.445 82.6033 457.522 83.9734C456.6 85.3435 455.327 86.3921 453.706 87.1191L459.452 97.4369C459.536 97.6046 459.578 97.7584 459.578 97.8982C459.578 98.1219 459.48 98.3316 459.284 98.5274C459.116 98.6951 458.921 98.779 458.697 98.779H453.119C452.308 98.779 451.734 98.4015 451.399 97.6466L446.617 88.4193H442.339V97.7305C442.339 98.038 442.228 98.2897 442.004 98.4854C441.808 98.6812 441.556 98.779 441.249 98.779H435.838ZM447.163 82.4635C448.449 82.4635 449.428 82.1559 450.099 81.5407C450.77 80.8976 451.105 80.0168 451.105 78.8984C451.105 77.7799 450.77 76.8991 450.099 76.256C449.456 75.5849 448.477 75.2494 447.163 75.2494H442.339V82.4635H447.163Z" fill="#9466FF"/>
<path d="M488.745 98.779C488.521 98.779 488.311 98.6951 488.115 98.5274C487.948 98.3316 487.864 98.1219 487.864 97.8982C487.864 97.7305 487.878 97.6046 487.906 97.5208L497.762 70.5938C497.846 70.2583 498.028 69.9787 498.307 69.755C498.587 69.5313 498.951 69.4194 499.398 69.4194H505.605C506.053 69.4194 506.416 69.5313 506.696 69.755C506.976 69.9787 507.157 70.2583 507.241 70.5938L517.056 97.5208L517.139 97.8982C517.139 98.1219 517.042 98.3316 516.846 98.5274C516.678 98.6951 516.468 98.779 516.217 98.779H511.058C510.387 98.779 509.939 98.4854 509.716 97.8982L508.08 93.6201H496.881L495.288 97.8982C495.064 98.4854 494.603 98.779 493.903 98.779H488.745ZM506.402 87.5804L502.502 76.5077L498.601 87.5804H506.402Z" fill="#9466FF"/>
</svg>
